HIERARCHY
ROOT Hips
{
	OFFSET 0.0000 0.0000 0.0000
	CHANNELS 6 Xposition Yposition Zposition Zrotation Xrotation Yrotation
	JOINT Ab
	{
		OFFSET -0.0000 8.0846 -0.0000
		CHANNELS 3 Zrotation Xrotation Yrotation
		JOINT Chest
		{
			OFFSET -0.0000 25.0068 -0.0000
			CHANNELS 3 Zrotation Xrotation Yrotation
			JOINT Neck
			{
				OFFSET -0.0000 25.0068 0.0000
				CHANNELS 3 Zrotation Xrotation Yrotation
				JOINT Head
				{
					OFFSET -0.0000 10.7556 0.0000
					CHANNELS 3 Zrotation Xrotation Yrotation
					End Site
					{
						OFFSET -0.0000 16.6222 0.0000
					}
				}
			}
			JOINT LeftCollar
			{
				OFFSET -0.0000 25.0068 0.0000
				CHANNELS 3 Zrotation Xrotation Yrotation
				JOINT LeftShoulder
				{
					OFFSET 19.5556 -0.0000 0.0000
					CHANNELS 3 Zrotation Xrotation Yrotation
					JOINT LeftElbow
					{
						OFFSET 27.1828 0.0000 0.0000
						CHANNELS 3 Zrotation Xrotation Yrotation
						JOINT LeftWrist
						{
							OFFSET 23.3157 0.0000 0.0000
							CHANNELS 3 Zrotation Xrotation Yrotation
							End Site
							{
								OFFSET 0.0000 -14.6667 0.0000
							}
						}
					}
				}
			}
			JOINT RightCollar
			{
				OFFSET -0.0000 25.0068 0.0000
				CHANNELS 3 Zrotation Xrotation Yrotation
				JOINT RightShoulder
				{
					OFFSET -19.5556 0.0000 0.0000
					CHANNELS 3 Zrotation Xrotation Yrotation
					JOINT RightElbow
					{
						OFFSET -27.1828 0.0000 0.0000
						CHANNELS 3 Zrotation Xrotation Yrotation
						JOINT RightWrist
						{
							OFFSET -23.3157 0.0000 0.0000
							CHANNELS 3 Zrotation Xrotation Yrotation
							End Site
							{
								OFFSET -0.0000 -14.6667 0.0000
							}
						}
					}
				}
			}
		}
	}
	JOINT LeftHip
	{
		OFFSET 11.7333 0.0000 0.0000
		CHANNELS 3 Zrotation Xrotation Yrotation
		JOINT LeftKnee
		{
			OFFSET -0.0000 -40.8688 0.0000
			CHANNELS 3 Zrotation Xrotation Yrotation
			JOINT LeftAnkle
			{
				OFFSET -0.0000 -44.4337 0.0000
				CHANNELS 3 Zrotation Xrotation Yrotation
				End Site
				{
					OFFSET -0.0000 -4.8889 16.6222
				}
			}
		}
	}
	JOINT RightHip
	{
		OFFSET -11.7333 0.0000 0.0000
		CHANNELS 3 Zrotation Xrotation Yrotation
		JOINT RightKnee
		{
			OFFSET -0.0000 -40.8688 0.0000
			CHANNELS 3 Zrotation Xrotation Yrotation
			JOINT RightAnkle
			{
				OFFSET -0.0000 -44.4337 0.0000
				CHANNELS 3 Zrotation Xrotation Yrotation
				End Site
				{
					OFFSET -0.0000 -4.8889 16.6222
				}
			}
		}
	}
}
MOTION
Frames: 9
Frame Time: 0.010000
-3.1369 88.7878 189.1156 2.4598 359.9939 175.8599 1.2917 359.2999 358.6039 358.9322 12.1855 358.7108 2.8375 347.0991 1.3427 1.1249 11.3056 0.9093 338.8586 358.5635 7.6964 300.9576 30.8105 354.1214 16.6923 354.3597 322.8832 81.9942 1.4247 341.5704 22.3237 359.2951 356.3579 58.4528 44.0720 10.3207 337.8456 354.2581 28.7283 278.3132 353.3376 19.4236 1.4091 357.6181 356.4262 358.7592 10.9361 359.0879 359.8927 352.6403 21.5917 1.5429 351.8261 359.2039 359.0580 18.8127 8.0786 357.2946 345.6839 338.3732 
-3.1650 88.7896 189.1132 2.4650 359.9691 175.8937 1.2694 359.3009 358.6026 358.9495 12.1932 358.7074 2.8684 347.1143 1.2645 1.0181 11.2983 0.8421 338.8554 358.5492 7.7247 300.9918 31.0513 354.0735 16.8148 354.3113 322.9149 81.9410 1.4099 341.7234 22.3035 359.2751 356.3297 58.4259 44.0976 10.3567 337.7737 354.2396 28.7570 278.3878 353.2494 19.3837 1.4028 357.5732 356.3997 358.7492 10.9632 359.0737 359.7455 352.6145 21.5659 1.5258 351.8092 359.1841 359.0603 18.8048 8.0675 357.2955 345.6883 338.3805 
-3.1976 88.7906 189.1034 2.4620 359.9707 175.9018 1.2471 359.3250 358.6090 358.9588 12.2000 358.7143 2.8605 347.0990 1.2333 1.0145 11.3361 0.8105 338.8431 358.5606 7.7606 301.0198 31.1912 354.0237 16.8063 354.3277 322.9833 82.1785 1.3193 341.9083 22.2950 359.2847 356.3368 58.3749 44.0491 10.3743 337.7867 354.2466 28.6697 278.4152 352.8590 19.1057 1.3771 357.5656 356.4085 358.7477 10.9886 359.0788 359.9274 352.6251 21.5772 1.4991 351.8254 359.1981 359.0634 18.7859 8.0513 357.2706 345.6625 338.3638 
-3.2289 88.7926 189.0956 2.4651 359.9657 175.9010 1.2346 359.3493 358.6157 358.9567 12.1999 358.7210 2.8671 347.1084 1.2118 1.0140 11.3261 0.7894 338.8510 358.5684 7.7208 300.9516 30.9682 354.0714 16.7173 354.3604 322.8490 82.0157 1.4316 341.6722 22.2964 359.2698 356.3333 58.3283 44.0457 10.3951 337.9120 354.2991 28.7792 278.1868 352.9846 19.7263 1.3660 357.5519 356.4015 358.7316 11.0141 359.0723 0.0041 352.6206 21.5996 1.4826 351.8355 359.2518 359.0769 18.7663 7.9851 357.4691 345.5924 338.3658 
-3.2647 88.7942 189.0853 2.4643 359.9685 175.9050 1.1980 359.3625 358.6255 359.0098 12.2612 358.7257 2.8078 347.0418 1.1686 1.0074 11.3588 0.7518 338.8716 358.5499 7.7112 300.8666 30.9058 354.0750 16.6987 354.3648 322.7721 81.9829 1.4490 341.5911 22.2353 359.2609 356.2944 58.2388 44.0717 10.5148 338.0942 354.3236 28.9435 277.9332 353.3302 20.4592 1.3426 357.5481 356.4398 358.7335 11.0363 359.0334 359.9806 352.5914 21.5912 1.4572 351.8556 359.2921 359.0916 18.7441 7.9121 357.4111 345.6459 338.4555 
-3.3025 88.7948 189.0712 2.4671 359.9802 175.9132 1.1736 359.3891 358.6321 359.0297 12.2903 358.7313 2.8143 347.0262 1.1445 0.9426 11.3593 0.7186 338.8734 358.5630 7.7089 300.8444 30.9228 354.0702 16.6553 354.3837 322.7665 82.0055 1.4267 341.5674 22.2112 359.2780 356.2844 58.1886 44.0529 10.5688 338.1378 354.2991 28.9942 277.9660 353.3485 20.5312 1.3233 357.5574 356.4599 358.7274 11.0564 358.9937 0.0235 352.5809 21.6084 1.4304 351.8879 359.3333 359.1082 18.7215 7.8745 357.3605 345.6547 338.4451 
-3.3465 88.7948 189.0637 2.4669 359.9673 175.9156 1.1717 359.4113 358.6369 359.0069 12.2819 358.7388 2.8063 347.0524 1.0913 0.9277 11.3460 0.6910 338.8825 358.5615 7.7046 300.8153 30.9300 354.0897 16.7024 354.3348 322.6014 81.9539 1.6625 341.8248 22.2065 359.2820 356.2923 58.1621 44.0491 10.5862 338.1150 354.2681 29.0536 278.0016 353.3725 20.5614 1.2987 357.5370 356.4538 358.7193 11.0760 358.9838 0.0223 352.5513 21.6337 1.3993 351.8809 359.3638 359.1193 18.7172 7.8378 357.3216 345.6627 338.4404 
-3.3904 88.7950 189.0511 2.4711 359.9631 175.9177 1.1583 359.4315 358.6469 359.0021 12.2889 358.7495 2.7787 347.0669 1.0510 0.9466 11.3450 0.6436 338.8882 358.5638 7.6857 300.7625 30.8369 354.1161 16.6614 354.3342 322.4863 81.9445 1.7978 341.8763 22.1951 359.2739 356.2961 58.1264 44.0667 10.6035 338.0814 354.2462 29.1127 278.0496 353.3946 20.5460 1.2798 357.5358 356.4367 358.7046 11.0820 358.9925 359.8665 352.5048 21.6211 1.3747 351.8902 359.3954 359.1255 18.7045 7.7912 357.4214 345.6447 338.4748 
-3.4388 88.7949 189.0374 2.4741 359.9581 175.9260 1.1425 359.4517 358.6577 359.0004 12.2935 358.7614 2.7594 347.0847 1.0003 0.9465 11.3373 0.6282 338.8836 358.5622 7.7160 300.7564 31.0028 354.0758 16.7270 354.2892 322.5476 81.9586 1.7432 341.9675 22.1787 359.2649 356.2882 58.0758 44.1212 10.6492 338.0350 354.2444 29.0890 278.1510 353.1887 20.4398 1.2564 357.5373 356.4124 358.6896 11.0840 358.9889 359.8861 352.5074 21.6141 1.3408 351.9034 359.4374 359.1383 18.7025 7.7414 357.5194 345.6209 338.5258 
